<svg xmlns="http://www.w3.org/2000/svg" width="132" height="132" viewBox="0 0 132 132">
  <g id="noun_withdraw_2730580" transform="translate(1 1)">
    <g id="Grupo_28" data-name="Grupo 28">
      <path id="Caminho_43" data-name="Caminho 43" d="M64.688,95.316A6.313,6.313,0,1,0,71,101.629,6.32,6.32,0,0,0,64.688,95.316Zm0,10.625A4.313,4.313,0,1,1,69,101.629,4.317,4.317,0,0,1,64.688,105.941Z" fill="rgba(0,0,0,0)" stroke="#2bc362" stroke-width="2"/>
      <path id="Caminho_44" data-name="Caminho 44" d="M0,50.41A4.6,4.6,0,0,0,4.59,55H24.04v74a1,1,0,0,0,1,1h79.29a1,1,0,0,0,1-1V55h20.08A4.6,4.6,0,0,0,130,50.41V4.59A4.6,4.6,0,0,0,125.41,0H4.59A4.6,4.6,0,0,0,0,4.59ZM24.04,39.5H16.55a.7.7,0,0,1-.71-.71V27.21a.7.7,0,0,1,.71-.71h7.49ZM103.33,128H26.04V26.5h8.15v79.37a1,1,0,0,0,1,1,12.829,12.829,0,0,1,12.84,12.79,1,1,0,0,0,1,1H80.34a1,1,0,0,0,1-1A12.835,12.835,0,0,1,94.19,106.87a1,1,0,0,0,1-1V26.5h8.14ZM64.69,32.68a6.313,6.313,0,0,0,6.3-6.18h22.2v78.4A14.843,14.843,0,0,0,79.373,118.66H50A14.838,14.838,0,0,0,36.19,104.9V26.5H58.377A6.319,6.319,0,0,0,64.69,32.68ZM60.372,26.5H69a4.315,4.315,0,0,1-8.626,0ZM2,4.59A2.593,2.593,0,0,1,4.59,2H125.41A2.593,2.593,0,0,1,128,4.59V50.41A2.593,2.593,0,0,1,125.41,53H105.33V41.5h8.12a2.713,2.713,0,0,0,2.71-2.71V27.21a2.713,2.713,0,0,0-2.71-2.71H16.55a2.713,2.713,0,0,0-2.71,2.71V38.79a2.713,2.713,0,0,0,2.71,2.71h7.49V53H4.59A2.593,2.593,0,0,1,2,50.41ZM105.33,39.5v-13h8.12a.7.7,0,0,1,.71.71V38.79a.7.7,0,0,1-.71.71Z" fill="rgba(0,0,0,0)" stroke="#2bc362" stroke-width="2"/>
      <path id="Caminho_45" data-name="Caminho 45" d="M44.607,65a20.08,20.08,0,1,0,20.08-20.08A20.1,20.1,0,0,0,44.607,65Zm20.08-18.08A18.08,18.08,0,1,1,46.607,65,18.1,18.1,0,0,1,64.688,46.92Z" fill="rgba(0,0,0,0)" stroke="#2bc362" stroke-width="2"/>
      <path id="Caminho_46" data-name="Caminho 46" d="M51.938,66H53.15A6.3,6.3,0,0,0,65.6,66h8.583A4.312,4.312,0,0,1,70,69.313a1,1,0,0,0,0,2A6.317,6.317,0,0,0,76.225,66h1.212a1,1,0,0,0,0-2H76.225a6.3,6.3,0,0,0-12.451,0H55.191a4.312,4.312,0,0,1,4.184-3.312,1,1,0,0,0,0-2A6.317,6.317,0,0,0,53.15,64H51.938a1,1,0,0,0,0,2ZM70,60.688A4.312,4.312,0,0,1,74.184,64H65.816A4.312,4.312,0,0,1,70,60.688ZM63.559,66a4.3,4.3,0,0,1-8.367,0Z" fill="rgba(0,0,0,0)" stroke="#2bc362" stroke-width="2"/>
    </g>
  </g>
</svg>
