<svg xmlns="http://www.w3.org/2000/svg" xmlns:xlink="http://www.w3.org/1999/xlink" width="94.904" height="72.5" viewBox="0 0 94.904 72.5">
  <defs>
    <clipPath id="clip-path">
      <rect width="94.904" height="72.5" fill="none"/>
    </clipPath>
  </defs>
  <g id="noun_Alert_3408090" clip-path="url(#clip-path)">
    <g id="noun_Alert_3408090-2" data-name="noun_Alert_3408090" transform="translate(-2.5 -13.8)">
      <g id="Repetição_de_grade_2" data-name="Repetição de grade 2" transform="translate(2.5 13.8)" clip-path="url(#clip-path)">
        <g id="Grupo_29" data-name="Grupo 29" transform="translate(-2.5 -13.8)">
          <path id="Caminho_47" data-name="Caminho 47" d="M8.9,42.6A21.79,21.79,0,0,1,12.3,31a3.232,3.232,0,0,0-.9-4.5,3.248,3.248,0,0,0-4.4,1,27.522,27.522,0,0,0,.5,30.9,3.143,3.143,0,0,0,2.6,1.4,3,3,0,0,0,1.8-.6,3.21,3.21,0,0,0,.8-4.5A21.92,21.92,0,0,1,8.9,42.6Z" fill="#f8a725"/>
          <path id="Caminho_48" data-name="Caminho 48" d="M21.2,46.9a9.353,9.353,0,0,1-1-4.3,12.171,12.171,0,0,1,.7-3.8A3.2,3.2,0,1,0,15,36.3a16.806,16.806,0,0,0-1.2,6.3,15.714,15.714,0,0,0,1.6,7.1,3.155,3.155,0,0,0,2.9,1.8,3.529,3.529,0,0,0,1.4-.3A3.207,3.207,0,0,0,21.2,46.9Z" fill="#f8a725"/>
          <path id="Caminho_49" data-name="Caminho 49" d="M93,27.5a3.245,3.245,0,0,0-5.4,3.6A20.481,20.481,0,0,1,91,42.7a20.919,20.919,0,0,1-3.8,12.1,3.257,3.257,0,0,0,2.6,5.1,3.143,3.143,0,0,0,2.6-1.4,27.7,27.7,0,0,0,5-15.8A27.007,27.007,0,0,0,93,27.5Z" fill="#f8a725"/>
          <path id="Caminho_50" data-name="Caminho 50" d="M80.8,34.6a3.234,3.234,0,0,0-1.7,4.2,9.521,9.521,0,0,1,.7,3.8,9.071,9.071,0,0,1-1,4.3,3.22,3.22,0,0,0,5.8,2.8,15.715,15.715,0,0,0,1.6-7.1A16.807,16.807,0,0,0,85,36.3,3.234,3.234,0,0,0,80.8,34.6Z" fill="#f8a725"/>
          <path id="Caminho_51" data-name="Caminho 51" d="M78.1,62.1,74,53.4a11.158,11.158,0,0,1-1.1-4.7V42.3c0-10.8-7.2-20.3-17.3-22.8V17.6a3.8,3.8,0,0,0-3.8-3.8H48.3a3.8,3.8,0,0,0-3.8,3.8v1.9A22.957,22.957,0,0,0,27.2,41.7v7.1a11.157,11.157,0,0,1-1.1,4.7L22,62.2c-.6,1.3-1.4,2.6-2.1,3.8a5.547,5.547,0,0,0-.7,2.8c0,5.5,7.7,8.9,17.3,10.4v-.7a13.326,13.326,0,0,1,.9-4.9c-8.1-1.3-12.2-3.7-12.5-4.8.3-1.5,7.7-5.3,22.3-5.7V71A7.921,7.921,0,1,0,58,78.4,8,8,0,0,0,53,71V63c14.5.4,21.9,4.2,22.3,5.7-.3,1.1-4.5,3.5-12.5,4.8a13.326,13.326,0,0,1,.9,4.9v.7c9.7-1.6,17.3-5,17.3-10.4a6.812,6.812,0,0,0-.7-2.8A37.15,37.15,0,0,1,78.1,62.1ZM50,57.2a73.628,73.628,0,0,0-20.7,2.7l1.9-4a16.135,16.135,0,0,0,1.6-7.2V41.6a17.2,17.2,0,1,1,34.4,0v7.1a17.609,17.609,0,0,0,1.6,7.2l1.9,4A73.628,73.628,0,0,0,50,57.2Z" fill="#f8a725"/>
        </g>
      </g>
    </g>
  </g>
</svg>
